<mxfile host="app.diagrams.net" modified="2023-10-17T05:15:44.370Z" agent="Mozilla/5.0 (Windows NT 10.0; Win64; x64) AppleWebKit/537.36 (KHTML, like Gecko) Chrome/106.0.0.0 Safari/537.36 Edg/106.0.1370.47" version="22.0.4" etag="LikOF9hUyz00-VeZBORh" type="github">
  <diagram name="Page-1" id="rKU2NpH1XYkNwCE2PpRc">
    <mxGraphModel>
      <root>
        <mxCell id="0" />
        <mxCell id="1" parent="0" />
      </root>
    </mxGraphModel>
  </diagram>
</mxfile>
